<?xml version="1.0" encoding="utf-8"?>
<!-- Generator: Adobe Illustrator 19.2.1, SVG Export Plug-In . SVG Version: 6.00 Build 0)  -->
<svg version="1.1" id="Calque_1" xmlns="http://www.w3.org/2000/svg" xmlns:xlink="http://www.w3.org/1999/xlink" x="0px" y="0px"
	 viewBox="0 0 100 100" style="enable-background:new 0 0 100 100;" xml:space="preserve">
<path d="M52.8,15.7c19.8,0,35.9,16.1,35.9,35.9S72.6,87.5,52.8,87.5c-7.6,0-14.8-2.3-21-6.8c-0.6-0.5-1.4-0.7-2.2-0.7
	c-0.5,0-1,0.1-1.5,0.3l-8.5,3.8l3.6-9.5c0.4-1.1,0.3-2.4-0.4-3.4c-3.9-5.9-5.9-12.7-5.9-19.7C16.9,31.8,33,15.7,52.8,15.7 M52.8,12
	c-21.9,0-39.6,17.7-39.6,39.6c0,8,2.4,15.5,6.5,21.7l-6.8,17.9l16.7-7.5c6.5,4.7,14.5,7.5,23.2,7.5c21.9,0,39.6-17.7,39.6-39.6
	C92.4,29.7,74.7,12,52.8,12L52.8,12z"/>
<rect x="38.5" y="49.2" width="28.2" height="4.8"/>
<rect x="50.2" y="37.5" width="4.8" height="28.2"/>
</svg>
