<?xml version="1.0" encoding="utf-8"?>
<!-- Generator: Adobe Illustrator 19.2.1, SVG Export Plug-In . SVG Version: 6.00 Build 0)  -->
<svg version="1.1" id="Calque_1" xmlns="http://www.w3.org/2000/svg" xmlns:xlink="http://www.w3.org/1999/xlink" x="0px" y="0px"
	 viewBox="0 0 100 100" style="enable-background:new 0 0 100 100;" xml:space="preserve">
<path d="M89.1,47.1c-0.1-0.5-0.5-0.9-0.9-1L87.6,46v-8.2c0-0.3,0.1-0.7,0.4-0.9l0.5-0.5c0.4-0.3,0.5-0.9,0.4-1.4
	c-0.1-0.5-0.5-0.9-0.9-1l-4.2-0.9c-0.5-0.1-0.9-0.6-0.9-1.2l0-6.4l0-0.2l0.9-0.9c0.4-0.3,0.5-0.9,0.4-1.4c-0.1-0.5-0.5-0.9-0.9-1
	l-40.7-8.3c-0.3-0.1-0.6,0-0.9,0.2L10.2,39.1c-0.6,0.4-2.8,2.1-2.7,6.8c0,5.1,2.7,7.5,2.8,7.5c0,0,0,0,0,0c0,0,0.1,0,0.1,0.1
	c0,0,0.1,0,0.1,0.1c0,0,0.1,0,0.1,0c0,0,0.1,0,0.1,0c0,0,0,0,0.1,0l0.8,0.2c0.6,0.1,0.9,0.7,0.8,1.4c-0.1,0.7-0.2,1.5-0.2,2.4
	c0,2,0.4,3.5,0.9,4.7c0.2,0.5,0.1,1.2-0.3,1.5L12,64.4c-0.6,0.4-2.8,2.1-2.7,6.8c0,5.1,2.7,7.5,2.8,7.5c0.1,0.1,0.3,0.2,0.5,0.2
	l42.7,10.2c0,0,0,0,0,0l1.5,0.4c0.1,0,0.2,0,0.2,0c0.3,0,0.6-0.1,0.8-0.3L85.9,62c0.3-0.3,0.5-0.9,0.4-1.4c-0.1-0.5-0.5-0.9-0.9-1
	l-0.5-0.1v-6.8c0-0.3,0.1-0.7,0.4-0.9l3.5-3.4C89.1,48.1,89.2,47.6,89.1,47.1z M55,52.1c0.3,0,0.6-0.1,0.8-0.3l23-22.3
	c0.7-0.7,1.7-0.1,1.7,0.9V36c0,0.3-0.1,0.7-0.4,0.9L56.5,59.7c-0.7,0.6-1.7,0.1-1.7-0.9v-6.7C54.9,52.1,54.9,52.1,55,52.1z
	 M16.2,42.9l35.3,8.4c0.5,0.1,0.8,0.6,0.8,1.1v6.8c0,0.7-0.6,1.3-1.2,1.1l-36.4-8.6c-1.6-0.4-2.7-2-2.7-3.8v-1.3
	C12,44.3,14.1,42.4,16.2,42.9z M13.9,74.3v-3.9c0-1.6,1.3-2.8,2.7-2.5l36.8,8.8c0.5,0.1,0.8,0.6,0.8,1.1v6.8c0,0.7-0.6,1.3-1.2,1.1
	L15.8,77C14.7,76.7,13.9,75.6,13.9,74.3z M16.7,59.8L16.7,59.8c0-2.4,2-4.2,4.1-3.7l32.6,7.8c0,0,0,0,0,0l1.5,0.4c0.1,0,0.2,0,0.2,0
	c0.3,0,0.6-0.1,0.8-0.3l0.7-0.6l0.4,0.1v7.8c0,0.7-0.6,1.3-1.2,1.1l-36.3-8.6C17.9,63.2,16.7,61.6,16.7,59.8z M82.1,62.1L58.4,85
	c-0.7,0.6-1.7,0.1-1.7-0.9l0-6.7c0.1,0,0.1,0,0.2,0c0.3,0,0.6-0.1,0.8-0.3l1.4-1.3l0.6,0.1c0.1,0,0.2,0,0.2,0c0.3,0,0.6-0.1,0.8-0.3
	l20.1-19.5c0.7-0.7,1.7-0.1,1.7,0.9v4.2C82.5,61.6,82.3,61.9,82.1,62.1z M84.9,48.6L61.2,71.5c-0.7,0.6-1.7,0.1-1.7-0.9l0-6.7
	c0.1,0,0.1,0,0.2,0c0.3,0,0.6-0.1,0.8-0.3l23.1-22.4c0.7-0.7,1.7-0.1,1.7,0.9l0,5.6C85.3,48,85.1,48.4,84.9,48.6z"/>
</svg>
