<?xml version="1.0" encoding="utf-8"?>
<!-- Generator: Adobe Illustrator 19.2.1, SVG Export Plug-In . SVG Version: 6.00 Build 0)  -->
<svg version="1.1" id="Calque_1" xmlns="http://www.w3.org/2000/svg" xmlns:xlink="http://www.w3.org/1999/xlink" x="0px" y="0px"
	 viewBox="0 0 100 100" style="enable-background:new 0 0 100 100;" xml:space="preserve">
<style type="text/css">
	.st0{fill:#1D1D1B;stroke:#1D1D1B;stroke-width:0.6381;stroke-miterlimit:10;}
	.st1{stroke:#1D1D1B;stroke-width:0.6381;stroke-miterlimit:10;}
	.st2{fill:#1D1D1B;stroke:#FFFFFF;stroke-width:5.7427;stroke-miterlimit:10;}
	.st3{fill:#FFFFFF;}
</style>
<g>
	<path class="st0" d="M32.7,45.1C37,43.2,40,38.9,40,33.9c0-6.8-5.6-12.3-12.3-12.3c-6.8,0-12.3,5.6-12.3,12.3c0,5,3,9.3,7.3,11.2
		c-8.3,2.2-14.3,9.7-14.3,18.6v6.6l0.4,0.3c4.3,2.9,11.4,4.7,18.9,4.7s14.5-1.7,18.9-4.7l0.4-0.3v-6.6
		C46.8,54.8,40.9,47.3,32.7,45.1z M44.9,69.2c-4,2.6-10.5,4.1-17.4,4.1s-13.3-1.5-17.4-4.1v-5.6c0-9.6,7.8-17.4,17.4-17.4
		s17.4,7.8,17.4,17.4V69.2z M27.6,23.4c5.7,0,10.4,4.7,10.4,10.4s-4.7,10.5-10.4,10.5s-10.4-4.7-10.4-10.4S21.8,23.4,27.6,23.4z"/>
</g>
<circle cx="34.1" cy="31.5" r="1.8"/>
<ellipse transform="matrix(0.7784 -0.6277 0.6277 0.7784 -14.2671 22.6726)" cx="25" cy="31.5" rx="1.8" ry="1.8"/>
<g>
	<path class="st1" d="M76.3,45.1c4.3-1.9,7.3-6.3,7.3-11.2c0-6.8-5.6-12.3-12.3-12.3c-6.8,0-12.3,5.6-12.3,12.3c0,5,3,9.3,7.3,11.2
		C58,47.3,52,54.8,52,63.7v6.6l0.4,0.3c4.3,2.9,11.4,4.7,18.9,4.7c7.5,0,14.5-1.7,18.9-4.7l0.4-0.3v-6.6
		C90.5,54.8,84.5,47.3,76.3,45.1z M88.6,69.2c-4,2.6-10.5,4.1-17.4,4.1s-13.3-1.5-17.4-4.1v-5.6c0-9.6,7.8-17.4,17.4-17.4
		s17.4,7.8,17.4,17.4V69.2z M71.2,23.4c5.7,0,10.4,4.7,10.4,10.4S77,44.3,71.2,44.3s-10.4-4.7-10.4-10.4S65.5,23.4,71.2,23.4z"/>
</g>
<circle cx="77.8" cy="31.5" r="1.8"/>
<ellipse transform="matrix(0.7784 -0.6277 0.6277 0.7784 -4.5923 50.0823)" cx="68.6" cy="31.5" rx="1.8" ry="1.8"/>
<g>
	<path class="st2" d="M54.7,49.2C59,47.3,62,42.9,62,38c0-6.8-5.6-12.3-12.3-12.3c-6.8,0-12.3,5.6-12.3,12.3c0,5,3,9.3,7.3,11.2
		c-8.3,2.2-14.3,9.7-14.3,18.6v6.6l0.4,0.3c4.3,2.9,11.4,4.7,18.9,4.7s14.5-1.7,18.9-4.7l0.4-0.3v-6.6
		C68.8,58.9,62.8,51.4,54.7,49.2z M66.9,73.3c-4,2.6-10.5,4.1-17.4,4.1s-13.3-1.5-17.4-4.1v-5.6c0-9.6,7.8-17.4,17.4-17.4
		s17.4,7.8,17.4,17.4V73.3z M49.6,27.5c5.7,0,10.4,4.7,10.4,10.4s-4.7,10.5-10.4,10.5S39.2,43.7,39.2,38S43.8,27.5,49.6,27.5z"/>
</g>
<circle cx="56.1" cy="35.6" r="1.8"/>
<ellipse transform="matrix(0.7784 -0.6277 0.6277 0.7784 -11.9574 37.3834)" cx="47" cy="35.6" rx="1.8" ry="1.8"/>
<ellipse class="st3" cx="49.6" cy="64.6" rx="16.9" ry="12.2"/>
<g>
	<path class="st1" d="M54.9,49.2c4.3-1.9,7.3-6.3,7.3-11.2c0-6.8-5.6-12.3-12.3-12.3c-6.8,0-12.3,5.6-12.3,12.3c0,5,3,9.3,7.3,11.2
		c-8.3,2.2-14.3,9.7-14.3,18.6v6.6l0.4,0.3c4.3,2.9,11.4,4.7,18.9,4.7s14.5-1.7,18.9-4.7l0.4-0.3v-6.6C69,58.9,63,51.4,54.9,49.2z
		 M67.1,73.3c-4,2.6-10.5,4.1-17.4,4.1s-13.3-1.5-17.4-4.1v-5.6c0-9.6,7.8-17.4,17.4-17.4s17.4,7.8,17.4,17.4V73.3z M49.8,27.5
		c5.7,0,10.4,4.7,10.4,10.4s-4.7,10.5-10.4,10.5S39.4,43.7,39.4,38S44,27.5,49.8,27.5z"/>
</g>
</svg>
