<?xml version="1.0" encoding="utf-8"?>
<!-- Generator: Adobe Illustrator 19.2.1, SVG Export Plug-In . SVG Version: 6.00 Build 0)  -->
<svg version="1.1" id="Calque_1" xmlns="http://www.w3.org/2000/svg" xmlns:xlink="http://www.w3.org/1999/xlink" x="0px" y="0px"
	 viewBox="0 0 100 100" style="enable-background:new 0 0 100 100;" xml:space="preserve">
<style type="text/css">
	.st0{fill:#1D1D1B;stroke:#FFFFFF;stroke-width:1.3874;stroke-miterlimit:10;}
</style>
<g>
	<path class="st0" d="M86.7,54.6l-12.4-9.3l-0.3-0.2l0,0L58.7,33.7v5.7l13.5,10l3,2.3c2,1.6,2,4.6,0,6.2L52.3,74.9
		c-1.4,1-3.3,1-4.7,0L24.9,57.8c-2.1-1.6-2.1-4.6,0-6.2l5.1-3.9l11.2-8.4v-5.7l-27.9,21l0,0l0,0v13L50,95.4l36.7-27.7L86.7,54.6
		L86.7,54.6L86.7,54.6z M80.2,66.9L53,87.5c-1.8,1.3-4.2,1.3-6,0L19.8,66.9c-1.2-0.9-2-2.4-2-3.9V58L50,82.3L82.2,58V63
		C82.2,64.5,81.5,66,80.2,66.9z"/>
	<path class="st0" d="M40.3,35.1v16.5c0,5.3,4.3,9.6,9.6,9.6s9.6-4.3,9.6-9.6V35.1c4.3-3,7.2-8.1,7.2-13.7c0-9.2-7.5-16.8-16.8-16.8
		s-16.8,7.5-16.8,16.8C33.2,27,36,32,40.3,35.1z M55.1,51.5c0,2.8-2.3,5.1-5.1,5.1s-5.1-2.3-5.1-5.1V37.3c1.6,0.5,3.4,0.8,5.2,0.8
		c1.8,0,3.5-0.3,5.1-0.8V51.5z M50,9.1c6.8,0,12.3,5.5,12.3,12.3S56.8,33.7,50,33.7s-12.3-5.5-12.3-12.3C37.7,14.6,43.2,9.1,50,9.1z
		"/>
	<path class="st0" d="M50,16.3c2.8,0,5.1,2.3,5.1,5.1c0,1.2,0.9,2.2,2.1,2.3c1.3,0.1,2.4-0.9,2.4-2.2c0-5.2-4.2-9.5-9.4-9.6
		c-1.2,0-2.3,0.7-2.4,1.9C47.6,15.1,48.6,16.3,50,16.3z"/>
</g>
</svg>
