<?xml version="1.0" encoding="utf-8"?>
<!-- Generator: Adobe Illustrator 19.2.1, SVG Export Plug-In . SVG Version: 6.00 Build 0)  -->
<svg version="1.1" id="Calque_1" xmlns="http://www.w3.org/2000/svg" xmlns:xlink="http://www.w3.org/1999/xlink" x="0px" y="0px"
	 viewBox="0 0 100 100" style="enable-background:new 0 0 100 100;" xml:space="preserve">
<path d="M80.2,32.1h-0.3c-0.8,0-1.4-0.6-1.4-1.4V29c0-0.8-0.6-1.4-1.4-1.4H65.3c-0.5,0-0.9-0.2-1.2-0.6l-1.7-2.3
	c-0.3-0.4-0.7-0.6-1.2-0.6h-8.7c-0.8,0-1.4,0.6-1.4,1.4v22h0c0,0.4,0.1,0.7,0.4,1c0.2,0.2,0.6,0.3,0.9,0.3l22.5,0
	c0.6,0,1.1-0.4,1.2-0.9l5.2-14.1v-0.1C81.4,32.8,80.9,32.1,80.2,32.1z M52.2,26.5c0-0.8,0.6-1.4,1.4-1.4h7.2c0.5,0,0.9,0.2,1.2,0.6
	l1.7,2.3c0.3,0.4,0.7,0.6,1.2,0.6H76c0.8,0,1.4,0.6,1.4,1.4v0.7c0,0.8-0.6,1.4-1.4,1.4H57.6c-0.1,0-0.1,0-0.2,0
	c-0.5,0.1-0.9,0.4-1,0.9L55,36.9c-0.5,1.5-2.8,1.1-2.8-0.5V26.5z M75.3,47.5c0,0.1-0.1,0.2-0.3,0.2H52.5c-0.1,0-0.2-0.1-0.2-0.1
	c0,0-0.1-0.1-0.1-0.2l5.1-14.1c0-0.1,0.1-0.2,0.3-0.2h20.8h1.8c0.2,0,0.2,0.3,0.3,0.4L75.3,47.5z"/>
<path d="M47.6,59.3h-0.3c-0.8,0-1.4-0.6-1.4-1.4v-1.7c0-0.8-0.6-1.4-1.4-1.4H32.7c-0.5,0-0.9-0.2-1.2-0.6l-1.7-2.3
	c-0.3-0.4-0.7-0.6-1.2-0.6H20c-0.8,0-1.4,0.6-1.4,1.4v22h0c0,0.4,0.1,0.7,0.4,1c0.2,0.2,0.6,0.3,0.9,0.3h22.5c0.6,0,1.1-0.4,1.2-0.9
	l5.2-14.1v-0.1C48.8,59.9,48.3,59.3,47.6,59.3z M19.6,53.7c0-0.8,0.6-1.4,1.4-1.4h7.2c0.5,0,0.9,0.2,1.2,0.6l1.7,2.3
	c0.3,0.4,0.7,0.6,1.2,0.6h11.2c0.8,0,1.4,0.6,1.4,1.4v0.7c0,0.8-0.6,1.4-1.4,1.4H25c-0.1,0-0.1,0-0.2,0c-0.5,0.1-0.9,0.4-1,0.9
	l-1.4,3.9c-0.5,1.5-2.8,1.1-2.8-0.5V53.7z M42.7,74.7c0,0.1-0.1,0.2-0.3,0.2H19.9c-0.1,0-0.2-0.1-0.2-0.1c0,0-0.1-0.1-0.1-0.2
	l5.1-14.1c0-0.1,0.1-0.2,0.3-0.2h20.8h1.8c0.2,0,0.2,0.3,0.3,0.4L42.7,74.7z"/>
<path d="M47.5,32.1h-0.3c-0.8,0-1.4-0.6-1.4-1.4V29c0-0.8-0.6-1.4-1.4-1.4H32.7c-0.5,0-0.9-0.2-1.2-0.6l-1.7-2.3
	c-0.3-0.4-0.7-0.6-1.2-0.6H20c-0.8,0-1.4,0.6-1.4,1.4v22h0c0,0.4,0.1,0.7,0.4,1c0.2,0.2,0.6,0.3,0.9,0.3l22.5,0
	c0.6,0,1.1-0.4,1.2-0.9l5.2-14.1v-0.1C48.8,32.8,48.3,32.1,47.5,32.1z M19.6,26.5c0-0.8,0.6-1.4,1.4-1.4h7.2c0.5,0,0.9,0.2,1.2,0.6
	L31,28c0.3,0.4,0.7,0.6,1.2,0.6h11.2c0.8,0,1.4,0.6,1.4,1.4v0.7c0,0.8-0.6,1.4-1.4,1.4H25c-0.1,0-0.1,0-0.2,0
	c-0.5,0.1-0.9,0.4-1,0.9l-1.4,3.9c-0.5,1.5-2.8,1.1-2.8-0.5V26.5z M42.7,47.5c0,0.1-0.1,0.2-0.3,0.2H19.9c-0.1,0-0.2-0.1-0.2-0.1
	c0,0-0.1-0.1-0.1-0.2l5.1-14.1c0-0.1,0.1-0.2,0.3-0.2h20.8h1.8c0.2,0,0.2,0.3,0.3,0.4L42.7,47.5z"/>
<path d="M80.2,59.3h-0.3c-0.8,0-1.4-0.6-1.4-1.4v-1.7c0-0.8-0.6-1.4-1.4-1.4H65.3c-0.5,0-0.9-0.2-1.2-0.6l-1.7-2.3
	c-0.3-0.4-0.7-0.6-1.2-0.6h-8.7c-0.8,0-1.4,0.6-1.4,1.4v22h0c0,0.4,0.1,0.7,0.4,1c0.2,0.2,0.6,0.3,0.9,0.3H75c0.6,0,1.1-0.4,1.2-0.9
	l5.2-14.1v-0.1C81.4,59.9,80.9,59.3,80.2,59.3z M52.2,53.7c0-0.8,0.6-1.4,1.4-1.4h7.2c0.5,0,0.9,0.2,1.2,0.6l1.7,2.3
	c0.3,0.4,0.7,0.6,1.2,0.6H76c0.8,0,1.4,0.6,1.4,1.4v0.7c0,0.8-0.6,1.4-1.4,1.4H57.6c-0.1,0-0.1,0-0.2,0c-0.5,0.1-0.9,0.4-1,0.9
	L55,64.1c-0.5,1.5-2.8,1.1-2.8-0.5V53.7z M75.3,74.7c0,0.1-0.1,0.2-0.3,0.2H52.5c-0.1,0-0.2-0.1-0.2-0.1c0,0-0.1-0.1-0.1-0.2
	l5.1-14.1c0-0.1,0.1-0.2,0.3-0.2h20.8h1.8c0.2,0,0.2,0.3,0.3,0.4L75.3,74.7z"/>
</svg>
