<?xml version="1.0" encoding="utf-8"?>
<!-- Generator: Adobe Illustrator 19.2.1, SVG Export Plug-In . SVG Version: 6.00 Build 0)  -->
<svg version="1.1" id="Calque_1" xmlns="http://www.w3.org/2000/svg" xmlns:xlink="http://www.w3.org/1999/xlink" x="0px" y="0px"
	 viewBox="0 0 100 100" style="enable-background:new 0 0 100 100;" xml:space="preserve">
<g transform="translate(0,-952.36218)">
	<path d="M82.6,1010.1l-4.9-3.1l0.1-0.1c0.5-0.7,0.3-1.6-0.5-2.1c0,0,0,0,0,0L25.8,973c-0.3-0.2-0.7-0.3-1-0.2
		c-0.5,0.1-0.9,0.3-1.1,0.7l-6.8,11.4c-0.4,0.7-0.2,1.6,0.5,2.1c0,0,0,0,0,0l27.6,15v0l8.5,4.6l0,0l0.4,0.2l12.1,24.2
		c0.3,0.8,1.2,1.2,2,0.9c0.8-0.3,1.2-1.2,0.9-2c0-0.1-0.1-0.2-0.1-0.3l-10.2-20.3l11.9,6.4c0.7,0.4,1.6,0.2,2-0.5l0.3-0.5l5.2,3.2
		c0.7,0.5,1.6,0.2,2.1-0.5c0,0,0,0,0-0.1l3-5.3C83.6,1011.5,83.3,1010.6,82.6,1010.1z M20.3,985l5.2-8.7l4.4,2.7l-5.1,8.5L20.3,985z
		 M70.7,1012.4L27.5,989l5-8.3l41.9,25.9L70.7,1012.4z M78.3,1014.6l-3.8-2.4l1.7-2.6l3.7,2.3L78.3,1014.6z"/>
</g>
<path d="M53.6,54.2L53.6,54.2L47.7,51L33.9,78.7c0,0.1-0.1,0.2-0.1,0.3c-0.4,0.7-1.4,0.9-2.1,0.5c-0.7-0.4-0.9-1.4-0.5-2.1
	l13.9-27.7L53.6,54.2z"/>
<path d="M49.5,51.2l-1.2,22.4c-0.1,0.6,0.3,1.1,0.9,1.2c0.6,0.1,1.2-0.4,1.3-1c0-0.1,0-0.1,0-0.2l1.2-22.3l0,0L49.5,51.2z"/>
</svg>
