<?xml version="1.0" encoding="utf-8"?>
<!-- Generator: Adobe Illustrator 19.2.1, SVG Export Plug-In . SVG Version: 6.00 Build 0)  -->
<svg version="1.1" id="Calque_1" xmlns="http://www.w3.org/2000/svg" xmlns:xlink="http://www.w3.org/1999/xlink" x="0px" y="0px"
	 viewBox="0 0 100 100" style="enable-background:new 0 0 100 100;" xml:space="preserve">
<style type="text/css">
	.st0{fill:#FFFFFF;}
</style>
<polygon points="77.6,22.9 78.7,22.5 75.5,13.5 71.6,14.8 "/>
<polygon points="47.9,22.1 40.2,24.5 46.1,32.7 53.9,30.3 "/>
<polygon points="30.2,37.6 38.4,35.1 32.5,26.9 24.3,29.5 "/>
<polygon points="63.9,17.2 55.7,19.7 61.6,27.9 69.8,25.3 "/>
<polygon points="81,39.8 77.2,50.1 69.1,50.1 72.8,39.8 64,39.8 60.2,50.1 52.1,50.1 55.8,39.8 47.5,39.8 43.7,50.1 35.6,50.1 
	39.3,39.8 30.7,39.8 26.9,50.1 18.9,50.1 18.9,79.5 82.1,79.5 82.1,39.8 "/>
<polygon points="22.6,39.9 22.6,39.8 22.5,39.8 16.5,31.8 15.9,32 18.9,40.5 18.9,49.1 22.5,40 22.6,40 "/>
<polygon class="st0" points="62.8,62.1 44.2,72.8 44.2,51.4 "/>
</svg>
