<?xml version="1.0" encoding="utf-8"?>
<!-- Generator: Adobe Illustrator 19.2.1, SVG Export Plug-In . SVG Version: 6.00 Build 0)  -->
<svg version="1.1" id="Calque_1" xmlns="http://www.w3.org/2000/svg" xmlns:xlink="http://www.w3.org/1999/xlink" x="0px" y="0px"
	 viewBox="0 0 100 100" style="enable-background:new 0 0 100 100;" xml:space="preserve">
<path d="M79.7,51.1H79c-1.7,0-3-1.4-3-3v-3.6c0-1.7-1.4-3-3-3H47.8c-1,0-1.9-0.5-2.5-1.3l-3.6-5c-0.6-0.8-1.5-1.3-2.5-1.3H20.6
	c-1.7,0-3,1.4-3,3V84h0c0,0.8,0.3,1.5,0.9,2.1c0.5,0.5,1.3,0.7,2,0.7l48.3,0c1.2,0,2.3-0.8,2.6-2l11.1-30.3v-0.2
	C82.4,52.5,81.3,51.1,79.7,51.1z M19.7,39c0-1.7,1.4-3,3-3h15.4c1,0,1.9,0.5,2.5,1.3l3.6,5c0.6,0.8,1.5,1.3,2.5,1.3h24
	c1.7,0,3,1.4,3,3v1.5c0,1.7-1.4,3-3,3H31.3c-0.2,0-0.3,0-0.5,0c-1.1,0.2-1.9,0.9-2.2,1.9l-3,8.3c-1.2,3.2-5.9,2.4-5.9-1V39z
	 M69.3,84.2c-0.1,0.3-0.3,0.5-0.6,0.5H20.3c-0.3,0-0.4-0.2-0.5-0.2c-0.1-0.1-0.2-0.3-0.1-0.4l11-30.2c0.1-0.3,0.3-0.5,0.6-0.5h44.6
	h3.8c0.4,0,0.5,0.6,0.5,0.9L69.3,84.2z"/>
<polygon points="50,48.5 64.5,38.1 64.5,28.3 54.9,35.2 54.9,13.2 45,13.2 45,35.1 35.5,28.3 35.5,38 "/>
</svg>
