<?xml version="1.0" encoding="utf-8"?>
<!-- Generator: Adobe Illustrator 19.2.1, SVG Export Plug-In . SVG Version: 6.00 Build 0)  -->
<svg version="1.1" id="Calque_1" xmlns="http://www.w3.org/2000/svg" xmlns:xlink="http://www.w3.org/1999/xlink" x="0px" y="0px"
	 viewBox="0 0 100 100" style="enable-background:new 0 0 100 100;" xml:space="preserve">
<style type="text/css">
	.st0{fill:#1D1D1B;}
</style>
<g>
	<path class="st0" d="M27.8,70c0,0.5-0.2,0.7-0.7,0.7H13.5c-0.5,0-0.7-0.2-0.7-0.7v-2.5c0-0.5,0.2-0.7,0.7-0.7h4.3V33.5h-6.4v6.9
		c0,0.5-0.2,0.7-0.7,0.7H7.9c-0.5,0-0.7-0.2-0.7-0.7V30c0-0.4,0.2-0.8,0.8-0.8h24.4c0.6,0,0.8,0.2,0.8,0.8v10.2
		c0,0.5-0.2,0.7-0.7,0.7h-2.8c-0.5,0-0.7-0.2-0.7-0.7v-6.9h-6.4v33.4H27c0.5,0,0.7,0.2,0.7,0.7V70z"/>
	<path class="st0" d="M63.6,70c0,0.5-0.2,0.7-0.7,0.7h-9.8c-0.5,0-0.7-0.2-0.7-0.7v-2.1c0-0.4,0.2-0.7,0.7-0.7h2.2l-3.7-5.6
		c-0.5-0.8-1.2-1.9-1.6-2.5c-0.5,0.9-1,1.5-1.6,2.5l-4,5.7h2.8c0.5,0,0.7,0.2,0.7,0.7V70c0,0.5-0.2,0.7-0.7,0.7H36.9
		c-0.5,0-0.7-0.2-0.7-0.7v-2.3c0-0.5,0.2-0.7,0.7-0.7h2.3l8.5-11.1l-7.4-10.5h-2.8c-0.4,0-0.7-0.2-0.7-0.7v-2.3
		c0-0.5,0.2-0.7,0.7-0.7h10.2c0.5,0,0.7,0.2,0.7,0.7v2.1c0,0.5-0.2,0.7-0.7,0.7h-2.3l2.8,4.4c0.7,1,1.3,2.1,1.8,2.9
		c0.7-1,1.3-2,1.9-2.9l3-4.4h-2.3c-0.5,0-0.7-0.2-0.7-0.7v-2.1c0-0.5,0.2-0.7,0.7-0.7h9.5c0.4,0,0.7,0.2,0.7,0.7v2.3
		c0,0.5-0.2,0.7-0.7,0.7H60l-7.5,10L60.6,67h2.2c0.5,0,0.7,0.2,0.7,0.7V70z"/>
	<path class="st0" d="M87.3,70c0,0.5-0.2,0.7-0.7,0.7H73c-0.5,0-0.7-0.2-0.7-0.7v-2.5c0-0.5,0.2-0.7,0.7-0.7h4.3V33.5h-6.4v6.9
		c0,0.5-0.2,0.7-0.7,0.7h-2.7c-0.5,0-0.7-0.2-0.7-0.7V30c0-0.4,0.2-0.8,0.8-0.8H92c0.6,0,0.8,0.2,0.8,0.8v10.2
		c0,0.5-0.2,0.7-0.7,0.7h-2.8c-0.5,0-0.7-0.2-0.7-0.7v-6.9h-6.4v33.4h4.3c0.5,0,0.7,0.2,0.7,0.7V70z"/>
</g>
</svg>
