<?xml version="1.0" encoding="utf-8"?>
<!-- Generator: Adobe Illustrator 19.2.1, SVG Export Plug-In . SVG Version: 6.00 Build 0)  -->
<svg version="1.1" id="Calque_1" xmlns="http://www.w3.org/2000/svg" xmlns:xlink="http://www.w3.org/1999/xlink" x="0px" y="0px"
	 viewBox="0 0 100 100" style="enable-background:new 0 0 100 100;" xml:space="preserve">
<style type="text/css">
	.st0{fill:#FFFFFF;}
	.st1{fill:none;stroke:#000000;stroke-width:2.528;stroke-miterlimit:10;}
</style>
<path d="M56,26.5c0,2.6,0,5.3,0,7.9c0,1.7-0.8,2.9-2.3,3.6c-3.6,1.8-7.3,3.5-10.9,5.3c-0.7,0.3-1.4,0.3-2.1,0.2
	c-5.2-0.7-9-3.4-11.2-8.2c-0.8-1.7-1.2-3.6-1.2-5.5c0-2.6,0-5.1,0.1-7.7c0.1-3.5,1.5-6.4,4-8.9c2.6-2.6,5.8-4,9.4-4.1
	c0.2,0,0.5,0,0.7,0.1c3.7,1.8,7.4,3.6,11.1,5.4c1.6,0.8,2.3,2,2.3,3.7C56,21.3,56,23.9,56,26.5z"/>
<path d="M67.4,16.3c0,9.7,0,19.4,0,29.1c0,1.4-0.7,2.3-2.1,2.6H58c-1.1-0.2-1.9-1.1-2-2.3c0-0.2,0-0.3,0-0.5V16.4
	c0-1.4,0.6-2.4,1.8-2.7c0.3-0.1,0.6-0.1,0.9-0.1c2,0,4,0,6,0C66.4,13.6,67.4,14.6,67.4,16.3z"/>
<ellipse class="st0" cx="32.6" cy="25.8" rx="1.2" ry="9.6"/>
<path class="st1" d="M61.7,46.4c0,0-2.7,5.5,0,9.9c2.7,4.4,6.1,6.5,2.5,11.2c-3.6,4.6-13.3,1.3-10.7,10.7s4.3,11,8.2,12.2"/>
</svg>
