<?xml version="1.0" encoding="utf-8"?>
<!-- Generator: Adobe Illustrator 19.2.1, SVG Export Plug-In . SVG Version: 6.00 Build 0)  -->
<svg version="1.1" id="Calque_1" xmlns="http://www.w3.org/2000/svg" xmlns:xlink="http://www.w3.org/1999/xlink" x="0px" y="0px"
	 viewBox="0 0 100 100" style="enable-background:new 0 0 100 100;" xml:space="preserve">
<style type="text/css">
	.st0{stroke:#1D1D1B;stroke-miterlimit:10;}
</style>
<g>
	<path class="st0" d="M57.9,44.9c6.7-3,11.4-9.8,11.4-17.6C69.3,16.6,60.6,8,50,8c-10.7,0-19.3,8.7-19.3,19.3
		c0,7.8,4.7,14.5,11.4,17.6c-13,3.5-22.4,15.2-22.4,29.1v10.3l0.7,0.4C27.1,89.3,38.2,92,50,92s22.8-2.7,29.6-7.3l0.7-0.4V74
		C80.1,60.1,70.7,48.4,57.9,44.9z M77.1,82.7c-6.3,4-16.4,6.4-27.2,6.4S29,86.7,22.7,82.7V74c0-15,12.2-27.2,27.2-27.2
		S77.1,59,77.1,74V82.7z M49.9,10.9c9,0,16.3,7.3,16.3,16.3s-7.3,16.4-16.3,16.4s-16.3-7.3-16.3-16.3S40.9,10.9,49.9,10.9z"/>
</g>
<circle cx="60.1" cy="23.6" r="2.8"/>
<ellipse transform="matrix(0.7784 -0.6277 0.6277 0.7784 -4.684 34.0072)" cx="45.8" cy="23.6" rx="2.8" ry="2.8"/>
</svg>
