<?xml version="1.0" encoding="utf-8"?>
<!-- Generator: Adobe Illustrator 19.2.1, SVG Export Plug-In . SVG Version: 6.00 Build 0)  -->
<svg version="1.1" id="Calque_1" xmlns="http://www.w3.org/2000/svg" xmlns:xlink="http://www.w3.org/1999/xlink" x="0px" y="0px"
	 viewBox="0 0 100 100" style="enable-background:new 0 0 100 100;" xml:space="preserve">
<style type="text/css">
	.st0{fill:#1D1D1B;stroke:#FFFFFF;stroke-width:1.7226;stroke-miterlimit:10;}
</style>
<rect x="42.4" y="38.9" width="26.8" height="4.6"/>
<rect x="53.5" y="27.8" width="4.6" height="26.8"/>
<rect x="13.7" y="65.5" transform="matrix(0.7071 -0.7071 0.7071 0.7071 -39.1171 41.1465)" class="st0" width="32.7" height="4.6"/>
<path class="st0" d="M55.3,63.6C43,63.6,33,53.6,33,41.3S43,19,55.3,19c12.3,0,22.3,10,22.3,22.3C77.5,53.6,67.6,63.6,55.3,63.6z
	 M55.3,23.6c-9.8,0-17.7,7.9-17.7,17.7S45.5,59,55.3,59S73,51.1,73,41.3c0,0,0,0,0,0C73,31.5,65.1,23.6,55.3,23.6z"/>
</svg>
