<?xml version="1.0" encoding="utf-8"?>
<!-- Generator: Adobe Illustrator 19.2.1, SVG Export Plug-In . SVG Version: 6.00 Build 0)  -->
<svg version="1.1" id="Calque_1" xmlns="http://www.w3.org/2000/svg" xmlns:xlink="http://www.w3.org/1999/xlink" x="0px" y="0px"
	 viewBox="0 0 100 100" style="enable-background:new 0 0 100 100;" xml:space="preserve">
<style type="text/css">
	.st0{fill:#FFFFFF;}
</style>
<path d="M71.7,85.4V14.7H61.2v-4.2l-30.3,4.2h-0.5v70.7H9.8c-0.3,0-0.5,0.2-0.5,0.5v1c0,0.3,0.2,0.5,0.5,0.5h21.4l29.9,4.1V16.7H65
	c2.6,0,4.8,2.1,4.8,4.8v65.4c0,0.3,0.2,0.5,0.5,0.5h19.7c0.3,0,0.6-0.3,0.6-0.6v-1c0-0.3-0.2-0.5-0.5-0.5L71.7,85.4L71.7,85.4z"/>
<ellipse class="st0" cx="54.1" cy="51.2" rx="1.9" ry="3"/>
</svg>
