<?xml version="1.0" encoding="utf-8"?>
<!-- Generator: Adobe Illustrator 19.2.1, SVG Export Plug-In . SVG Version: 6.00 Build 0)  -->
<svg version="1.1" id="Calque_1" xmlns="http://www.w3.org/2000/svg" xmlns:xlink="http://www.w3.org/1999/xlink" x="0px" y="0px"
	 viewBox="0 0 100 100" style="enable-background:new 0 0 100 100;" xml:space="preserve">
<path d="M78.6,52.9H78c-1.5,0-2.7-1.2-2.7-2.7V47c0-1.5-1.2-2.7-2.7-2.7H50.4c-0.9,0-1.7-0.4-2.2-1.1L45,38.7
	c-0.5-0.7-1.3-1.1-2.2-1.1H26.3c-1.5,0-2.7,1.2-2.7,2.7V82h0c0,0.7,0.3,1.3,0.8,1.8c0.5,0.4,1.1,0.6,1.8,0.6h42.7
	c1.1,0,2.1-0.7,2.3-1.7L81,55.9v-0.2C81,54.1,80,52.9,78.6,52.9z M25.5,42.2c0-1.5,1.2-2.7,2.7-2.7h13.6c0.9,0,1.7,0.4,2.2,1.1
	l3.2,4.4c0.5,0.7,1.3,1.1,2.2,1.1h21.3c1.5,0,2.7,1.2,2.7,2.7v1.3c0,1.5-1.2,2.7-2.7,2.7H35.8c-0.1,0-0.3,0-0.4,0
	c-0.9,0.2-1.7,0.8-1.9,1.7L30.7,62c-1,2.8-5.2,2.1-5.2-0.9V42.2z M69.4,82.2c-0.1,0.2-0.3,0.4-0.5,0.4H26.1c-0.2,0-0.4-0.1-0.4-0.2
	c-0.1-0.1-0.2-0.2-0.1-0.4l9.8-26.7c0.1-0.2,0.3-0.4,0.5-0.4h39.5h3.3c0.4,0,0.5,0.5,0.5,0.8L69.4,82.2z"/>
<rect x="47.8" y="23.8" width="9" height="6.9"/>
<polygon points="52.3,50.1 39.1,41 39.1,32.5 47.8,38.5 47.8,32.5 56.9,32.5 56.9,38.5 65.5,32.5 65.5,41 "/>
<rect x="47.8" y="15.5" width="9" height="6.9"/>
</svg>
