<?xml version="1.0" encoding="utf-8"?>
<!-- Generator: Adobe Illustrator 19.2.1, SVG Export Plug-In . SVG Version: 6.00 Build 0)  -->
<svg version="1.1" id="Calque_1" xmlns="http://www.w3.org/2000/svg" xmlns:xlink="http://www.w3.org/1999/xlink" x="0px" y="0px"
	 viewBox="0 0 100 100" style="enable-background:new 0 0 100 100;" xml:space="preserve">
<style type="text/css">
	.st0{fill:none;stroke:#000000;stroke-width:5.3574;stroke-linecap:round;stroke-linejoin:round;stroke-miterlimit:10;}
</style>
<g>
	<path class="st0" d="M34.8,69.6v5.5c0,0.2,0,0.4-0.2,0.5c-0.5,2.7-2,5.5-4.3,7.9c-5,5-12.3,6.1-16.3,2.1c-3.9-3.9-3-11.3,2.1-16.3
		c5-5,12.3-6.1,16.3-2.1c1.1,1.1,1.8,2.3,2.1,3.6c0.2,0.7,0.2,1.3,0.2,1.8"/>
	<path class="st0" d="M81.3,68.8c-0.4-1.4-1.1-2.7-2.1-3.8c-3.9-3.9-11.3-3-16.3,2.1c-5,5-6.1,12.3-2.1,16.3
		c3.9,3.9,11.3,3,16.3-2.1c3-3,4.6-7,4.5-10.4v-1.8v-23V17.4h-0.2l-38,1.4c-5,1.2-8.6,5.7-8.6,10.9V75"/>
	<path class="st0" d="M81.5,69.4"/>
	<line class="st0" x1="34.8" y1="38.2" x2="81.5" y2="35.9"/>
</g>
<ellipse transform="matrix(0.7382 -0.6746 0.6746 0.7382 -45.5332 35.6783)" cx="23.2" cy="76.5" rx="10.5" ry="7.5"/>
<ellipse transform="matrix(0.7382 -0.6746 0.6746 0.7382 -31.8344 66.5206)" cx="69.8" cy="74.3" rx="10.6" ry="7.7"/>
</svg>
