<?xml version="1.0" encoding="utf-8"?>
<!-- Generator: Adobe Illustrator 19.2.1, SVG Export Plug-In . SVG Version: 6.00 Build 0)  -->
<svg version="1.1" id="Calque_1" xmlns="http://www.w3.org/2000/svg" xmlns:xlink="http://www.w3.org/1999/xlink" x="0px" y="0px"
	 viewBox="0 0 100 100" style="enable-background:new 0 0 100 100;" xml:space="preserve">
<path d="M74.7,54.8h-0.6c-1.4,0-2.5-1.1-2.5-2.5v-3c0-1.4-1.1-2.5-2.5-2.5H48.2c-0.8,0-1.6-0.4-2.1-1.1l-3-4.2
	c-0.5-0.7-1.2-1.1-2.1-1.1H25.6c-1.4,0-2.5,1.1-2.5,2.5v39.2h0c0,0.6,0.2,1.3,0.7,1.7c0.4,0.4,1,0.6,1.6,0.6h40.1c1,0,2-0.7,2.2-1.6
	l9.2-25.2v-0.2C76.9,55.9,76,54.8,74.7,54.8z M24.9,44.7c0-1.4,1.1-2.5,2.5-2.5h12.8c0.8,0,1.6,0.4,2.1,1.1l3,4.2
	c0.5,0.7,1.2,1.1,2.1,1.1h20c1.4,0,2.5,1.1,2.5,2.5v1.2c0,1.4-1.1,2.5-2.5,2.5H34.5c-0.1,0-0.3,0-0.4,0c-0.9,0.1-1.6,0.8-1.8,1.6
	l-2.5,6.9c-1,2.7-4.9,2-4.9-0.9V44.7z M66,82.2c-0.1,0.2-0.3,0.4-0.5,0.4H25.4c-0.2,0-0.3-0.1-0.4-0.2c-0.1-0.1-0.1-0.2-0.1-0.4
	L34,57c0.1-0.2,0.3-0.4,0.5-0.4h37.1h3.1c0.3,0,0.4,0.5,0.5,0.7L66,82.2z"/>
<path d="M57.6,28.6v-5.4c0-4.2-3.4-7.7-7.7-7.7s-7.7,3.4-7.7,7.7v5.4c-3.2,0.6-5.6,3.2-5.6,6.3v9.8c0,3.6,3.1,6.4,6.9,6.4h12.8
	c3.8,0,6.9-2.9,6.9-6.4V35C63.2,31.8,60.8,29.2,57.6,28.6z M50,16c2.6,0,4.8,1.5,6.2,3.5C55.2,17.6,52.6,16,50,16
	c-2.6,0-5.1,1.4-6.2,3.5C45.1,17.4,47.4,16,50,16z M54.2,23.2v5.3h-8.4v-5.3c0-2.3,1.9-4.2,4.2-4.2C52.3,19,54.2,20.9,54.2,23.2z
	 M51.7,40.2v3.6c0,1-0.8,1.7-1.7,1.7c-0.9,0-1.7-0.8-1.7-1.7v-3.6c-0.7-0.5-1.2-1.4-1.2-2.3c0-1.6,1.3-2.9,2.9-2.9s2.9,1.3,2.9,2.9
	C52.9,38.8,52.4,39.7,51.7,40.2z"/>
</svg>
