<?xml version="1.0" encoding="utf-8"?>
<!-- Generator: Adobe Illustrator 19.2.1, SVG Export Plug-In . SVG Version: 6.00 Build 0)  -->
<svg version="1.1" id="Calque_1" xmlns="http://www.w3.org/2000/svg" xmlns:xlink="http://www.w3.org/1999/xlink" x="0px" y="0px"
	 viewBox="0 0 100 100" style="enable-background:new 0 0 100 100;" xml:space="preserve">
<path d="M37.5,31.8c13.8,0,25.1,11.3,25.1,25.1S51.3,82,37.5,82c-5.3,0-10.4-1.6-14.7-4.7c-0.5-0.3-1-0.5-1.5-0.5
	c-0.4,0-0.7,0.1-1.1,0.2l-6,2.7l2.5-6.6c0.3-0.8,0.2-1.7-0.3-2.4c-2.7-4.1-4.1-8.9-4.1-13.8C12.4,43.1,23.7,31.8,37.5,31.8
	 M37.5,29.2c-15.3,0-27.7,12.4-27.7,27.7c0,5.6,1.7,10.8,4.5,15.2L9.6,84.6l11.7-5.2c4.6,3.3,10.2,5.2,16.2,5.2
	c15.3,0,27.7-12.4,27.7-27.7C65.2,41.6,52.8,29.2,37.5,29.2L37.5,29.2z"/>
<path d="M85.6,58.3c2.9-4.4,4.5-9.6,4.5-15.2c0-15.3-12.4-27.7-27.7-27.7c-10.5,0-19.6,5.8-24.3,14.5c1-0.3,2-0.4,2.9,0.2
	c4.4-7.2,12.4-12,21.4-12c13.8,0,25.1,11.3,25.1,25.1c0,4.9-1.4,9.7-4.1,13.8c-0.5,0.7-0.6,1.6-0.3,2.4l2.5,6.6l-6-2.7
	c-0.3-0.2-0.7-0.2-1.1-0.2c-0.5,0-1.1,0.2-1.5,0.5c-4.3,3.1-9.4,4.7-14.7,4.7c-0.3,0-0.6,0-1,0c-0.4,0.9-0.9,1.7-1.5,2.5
	c0.8,0.1,1.6,0.1,2.5,0.1c6.1,0,11.6-1.9,16.2-5.2l11.7,5.2L85.6,58.3z"/>
</svg>
