<?xml version="1.0" encoding="utf-8"?>
<!-- Generator: Adobe Illustrator 19.2.1, SVG Export Plug-In . SVG Version: 6.00 Build 0)  -->
<svg version="1.1" id="Calque_1" xmlns="http://www.w3.org/2000/svg" xmlns:xlink="http://www.w3.org/1999/xlink" x="0px" y="0px"
	 viewBox="0 0 100 100" style="enable-background:new 0 0 100 100;" xml:space="preserve">
<path d="M91.2,40.6h-0.9c-2.2,0-3.9-1.8-3.9-3.9V32c0-2.2-1.8-3.9-3.9-3.9H50c-1.3,0-2.5-0.6-3.2-1.6L42.2,20
	c-0.7-1-1.9-1.6-3.2-1.6H14.9c-2.2,0-3.9,1.8-3.9,3.9v60.9h0c0,1,0.4,1.9,1.2,2.7c0.7,0.6,1.6,0.9,2.6,0.9l62.3,0
	c1.6,0,3-1.1,3.4-2.5L94.8,45v-0.2C94.8,42.4,93.3,40.6,91.2,40.6z M13.8,25c0-2.2,1.8-3.9,3.9-3.9h19.8c1.3,0,2.5,0.6,3.2,1.6
	l4.6,6.5c0.7,1,1.9,1.6,3.2,1.6h31.1c2.2,0,3.9,1.8,3.9,3.9v1.9c0,2.2-1.8,3.9-3.9,3.9H28.8c-0.2,0-0.4,0-0.6,0.1
	c-1.4,0.2-2.5,1.2-2.8,2.5l-3.9,10.7c-1.5,4.1-7.6,3-7.6-1.4V25z M77.8,83.3c-0.1,0.3-0.4,0.6-0.8,0.6H14.6c-0.3,0-0.5-0.2-0.6-0.3
	c-0.1-0.1-0.2-0.4-0.2-0.6L28,44c0.1-0.3,0.4-0.6,0.8-0.6h57.6h4.9c0.5,0,0.7,0.8,0.7,1.1L77.8,83.3z"/>
</svg>
